<svg width="160" height="160" viewBox="0 0 160 160" fill="none" xmlns="http://www.w3.org/2000/svg">
<path d="M79.6333 79.9993C79.6333 71.8176 86.266 65.1846 94.448 65.1846C102.63 65.1846 109.263 71.8176 109.263 79.9993C109.263 88.1815 102.63 94.8141 94.448 94.8141C86.266 94.8141 79.6333 88.1815 79.6333 79.9993Z" fill="#1ABCFE"/>
<path d="M50 109.629C50 101.447 56.6328 94.8145 64.8147 94.8145H79.6292V109.629C79.6292 117.811 72.9966 124.444 64.8147 124.444C56.6328 124.444 50 117.811 50 109.629Z" fill="#0ACF83"/>
<path d="M79.6333 35.5557V65.1851H94.448C102.63 65.1851 109.263 58.5524 109.263 50.3704C109.263 42.1884 102.63 35.5557 94.448 35.5557H79.6333Z" fill="#FF7262"/>
<path d="M50 50.3704C50 58.5524 56.6328 65.1851 64.8147 65.1851H79.6292V35.5557H64.8147C56.6328 35.5557 50 42.1884 50 50.3704Z" fill="#F24E1E"/>
<path d="M50 79.9993C50 88.1815 56.6328 94.8141 64.8147 94.8141H79.6292V65.1846H64.8147C56.6328 65.1846 50 71.8176 50 79.9993Z" fill="#A259FF"/>
</svg>
