<svg width="160" height="160" viewBox="0 0 160 160" fill="none" xmlns="http://www.w3.org/2000/svg">
<path d="M110.207 65.2971C109.208 64.956 108.202 64.6382 107.189 64.344C107.357 63.6604 107.512 62.9729 107.654 62.2815C109.939 51.1682 108.445 42.2151 103.346 39.2678C98.4629 36.4397 90.4551 39.3869 82.377 46.4338C81.5827 47.1291 80.8047 47.8453 80.043 48.5823C79.5352 48.0927 79.0143 47.6135 78.4805 47.1448C70.0137 39.6096 61.5273 36.4358 56.4336 39.3928C51.5508 42.2268 50.0996 50.6428 52.1562 61.176C52.362 62.2177 52.5931 63.2548 52.8496 64.2873C51.6824 64.6182 50.525 64.983 49.3789 65.3811C39.4648 68.8479 33.125 74.2834 33.125 79.9201C33.125 85.7444 39.9297 91.5842 50.2676 95.1252C51.1061 95.4104 51.9525 95.6754 52.8066 95.9201C52.5293 97.0256 52.2839 98.1434 52.0703 99.2737C50.1172 109.625 51.6406 117.842 56.5137 120.658C61.5469 123.567 69.9902 120.578 78.2207 113.371C78.8717 112.801 79.5228 112.199 80.1738 111.565C80.9967 112.36 81.8431 113.132 82.7129 113.881C90.6816 120.752 98.5508 123.528 103.416 120.703C108.445 117.785 110.08 108.957 107.957 98.217C107.794 97.3967 107.607 96.5595 107.395 95.7053C107.988 95.5295 108.57 95.3479 109.139 95.1604C119.881 91.592 126.879 85.8225 126.879 79.926C126.875 74.2619 120.332 68.7912 110.207 65.2971V65.2971ZM85.0117 49.4612C91.9316 43.4241 98.4004 41.0412 101.35 42.7444C104.488 44.5588 105.709 51.8752 103.736 61.4709C103.606 62.0959 103.465 62.719 103.314 63.3401C99.1848 62.4008 94.9971 61.7378 90.7793 61.3557C88.3643 57.8769 85.717 54.5654 82.8555 51.4436C83.556 50.7639 84.2734 50.1031 85.0078 49.4612H85.0117ZM60.8066 84.7365C61.6543 86.3772 62.5404 87.9976 63.4648 89.5979C64.4062 91.2307 65.3874 92.8394 66.4082 94.4241C63.506 94.1085 60.622 93.6437 57.7676 93.0315C58.5957 90.3518 59.6152 87.5686 60.8066 84.7365V84.7365ZM60.8066 75.2971C59.6348 72.5256 58.6426 69.799 57.8281 67.1662C60.5039 66.5666 63.3555 66.0764 66.3281 65.7053C65.332 67.26 64.3737 68.8375 63.4531 70.4377C62.5325 72.038 61.6484 73.6578 60.8008 75.2971H60.8066ZM62.9355 80.0178C64.1699 77.4436 65.4993 74.9188 66.9238 72.4436C68.347 69.9696 69.862 67.5523 71.4687 65.1916C74.2578 64.9807 77.1172 64.8694 80.0059 64.8694C82.8945 64.8694 85.7715 64.9807 88.5586 65.1936C90.1484 67.549 91.6543 69.9579 93.0762 72.4201C94.498 74.8824 95.8451 77.3954 97.1172 79.9592C95.862 82.5425 94.5182 85.0777 93.0859 87.5647C91.6654 90.0386 90.168 92.4631 88.5937 94.8381C85.8105 95.0334 82.9297 95.1408 80 95.1408C77.0703 95.1408 74.2441 95.0491 71.5117 94.8713C69.8932 92.5028 68.3659 90.0751 66.9297 87.5881C65.4935 85.1011 64.1602 82.5777 62.9297 80.0178H62.9355ZM96.5527 89.5705C97.4967 87.9325 98.403 86.273 99.2715 84.592C100.462 87.2914 101.513 90.0503 102.42 92.8576C99.532 93.5079 96.612 94.0067 93.6719 94.3518C94.6641 92.7776 95.6243 91.1838 96.5527 89.5705V89.5705ZM99.2324 75.299C98.3678 73.6519 97.4687 72.0243 96.5352 70.4162C95.6237 68.8303 94.6738 67.2639 93.6855 65.717C96.6758 66.0959 99.5449 66.5998 102.234 67.2151C101.37 69.9583 100.368 72.6563 99.2324 75.299V75.299ZM80.0449 54.3127C81.9952 56.4438 83.8367 58.6719 85.5625 60.9885C81.8711 60.8127 78.1771 60.8127 74.4805 60.9885C76.3027 58.5783 78.168 56.342 80.0449 54.3127V54.3127ZM58.4492 42.8635C61.5859 41.0432 68.5215 43.6448 75.832 50.1428C76.2988 50.5588 76.7695 50.9944 77.2383 51.4455C74.362 54.5669 71.696 57.8756 69.2578 61.3498C65.0493 61.729 60.8699 62.3814 56.7461 63.303C56.5078 62.3446 56.293 61.3798 56.1016 60.4084C54.334 51.3791 55.5039 44.5725 58.4492 42.8635ZM53.877 92.053C53.0957 91.8303 52.3242 91.5888 51.5625 91.3283C46.9922 89.7658 43.2168 87.7268 40.625 85.5061C38.3047 83.5158 37.1289 81.5295 37.1289 79.9201C37.1289 76.5002 42.2187 72.1369 50.707 69.178C51.7734 68.8069 52.849 68.4677 53.9336 68.1604C55.1942 72.2117 56.721 76.1754 58.5039 80.0256C56.6997 83.929 55.1541 87.9468 53.877 92.053V92.053ZM75.582 110.348C71.9434 113.535 68.2988 115.795 65.0859 116.934C62.1992 117.955 59.9004 117.985 58.5117 117.182C55.5547 115.473 54.3242 108.873 56.002 100.022C56.2012 98.98 56.429 97.9384 56.6855 96.8967C60.8507 97.7939 65.072 98.4067 69.3203 98.7307C71.7823 102.223 74.4704 105.55 77.3672 108.692C76.7852 109.264 76.1895 109.815 75.582 110.348ZM80.1562 105.813C78.2578 103.76 76.3633 101.489 74.5156 99.0471C76.3112 99.1174 78.1393 99.1526 80 99.1526C81.9102 99.1526 83.8008 99.1116 85.6641 99.0276C83.9446 101.381 82.1062 103.646 80.1562 105.813V105.813ZM104.477 111.397C103.918 114.412 102.795 116.424 101.406 117.229C98.4512 118.944 92.1328 116.715 85.3203 110.838C84.5391 110.166 83.7578 109.446 82.9629 108.69C85.8033 105.536 88.4284 102.195 90.8203 98.6897C95.0921 98.3277 99.334 97.6719 103.516 96.7268C103.707 97.5002 103.876 98.258 104.023 99.0002C104.963 103.746 105.098 108.039 104.477 111.397V111.397ZM107.875 91.3498C107.363 91.5198 106.836 91.6838 106.301 91.844C104.99 87.7735 103.403 83.7969 101.553 79.9416C103.334 76.1377 104.858 72.2188 106.115 68.2112C107.074 68.4905 108.006 68.7834 108.902 69.094C117.578 72.0862 122.871 76.5158 122.871 79.9201C122.871 83.553 117.154 88.2678 107.875 91.3498V91.3498Z" fill="#58CCF3"/>
<path d="M79.999 88.311C81.6612 88.3164 83.2877 87.8284 84.6724 86.9089C86.0571 85.9894 87.1378 84.6796 87.7777 83.1455C88.4175 81.6114 88.5877 79.9219 88.2668 78.2909C87.9458 76.66 87.1481 75.161 85.9747 73.9837C84.8012 72.8064 83.3048 72.0038 81.6749 71.6775C80.045 71.3513 78.355 71.516 76.8188 72.1508C75.2826 72.7857 73.9693 73.8621 73.0453 75.2438C72.1212 76.6255 71.628 78.2503 71.6279 79.9126C71.6256 81.0138 71.8404 82.1047 72.2599 83.1229C72.6795 84.1411 73.2955 85.0667 74.073 85.8466C74.8504 86.6266 75.7739 87.2457 76.7908 87.6686C77.8076 88.0914 78.8978 88.3097 79.999 88.311Z" fill="#58CCF3"/>
</svg>
