<svg width="33" height="25" viewBox="0 0 33 25" fill="none" xmlns="http://www.w3.org/2000/svg">
<path d="M0.82959 25.0002V18.6082C0.82959 16.6669 1.17287 14.6072 1.85942 12.4292C2.56965 10.2275 3.58764 8.10865 4.9134 6.07267C6.26283 4.013 7.88451 2.2256 9.77845 0.710449L14.3239 4.40363C12.8324 6.53431 11.5303 8.75969 10.4177 11.0798C9.32864 13.3762 8.78414 15.8383 8.78414 18.4661V25.0002H0.82959ZM19.0114 25.0002V18.6082C19.0114 16.6669 19.3547 14.6072 20.0412 12.4292C20.7515 10.2275 21.7695 8.10865 23.0952 6.07267C24.4446 4.013 26.0663 2.2256 27.9603 0.710449L32.5057 4.40363C31.0142 6.53431 29.7122 8.75969 28.5995 11.0798C27.5105 13.3762 26.966 15.8383 26.966 18.4661V25.0002H19.0114Z" fill="black"/>
</svg>
