<svg width="48" height="48" viewBox="0 0 48 48" fill="none" xmlns="http://www.w3.org/2000/svg">
<path d="M24.2606 16.7475C24.1908 16.6808 24.098 16.6435 24.0014 16.6435C23.9048 16.6435 23.812 16.6808 23.7422 16.7475L15.1125 24.9914C15.0758 25.0265 15.0467 25.0686 15.0268 25.1153C15.0069 25.1619 14.9966 25.2121 14.9967 25.2628L14.9953 33C14.9953 33.3978 15.1533 33.7794 15.4346 34.0607C15.7159 34.342 16.0975 34.5 16.4953 34.5H21C21.1989 34.5 21.3897 34.421 21.5303 34.2803C21.671 34.1397 21.75 33.9489 21.75 33.75V27.375C21.75 27.2756 21.7895 27.1802 21.8598 27.1098C21.9301 27.0395 22.0255 27 22.125 27H25.875C25.9744 27 26.0698 27.0395 26.1402 27.1098C26.2105 27.1802 26.25 27.2756 26.25 27.375V33.75C26.25 33.9489 26.329 34.1397 26.4697 34.2803C26.6103 34.421 26.8011 34.5 27 34.5H31.5028C31.9006 34.5 32.2822 34.342 32.5635 34.0607C32.8448 33.7794 33.0028 33.3978 33.0028 33V25.2628C33.0029 25.2121 32.9926 25.1619 32.9727 25.1153C32.9528 25.0686 32.9237 25.0265 32.887 24.9914L24.2606 16.7475Z" fill="white"/>
<path d="M35.0114 23.4445L31.5052 20.0902V15C31.5052 14.8011 31.4262 14.6103 31.2855 14.4697C31.1449 14.329 30.9541 14.25 30.7552 14.25H28.5052C28.3063 14.25 28.1155 14.329 27.9748 14.4697C27.8342 14.6103 27.7552 14.8011 27.7552 15V16.5L25.0402 13.9041C24.7861 13.6472 24.4083 13.5 24 13.5C23.5931 13.5 23.2163 13.6472 22.9622 13.9045L12.9919 23.4436C12.7003 23.7248 12.6638 24.1875 12.9291 24.4922C12.9957 24.5691 13.0773 24.6316 13.1688 24.676C13.2604 24.7204 13.36 24.7457 13.4617 24.7503C13.5633 24.755 13.6649 24.7389 13.7601 24.7031C13.8553 24.6672 13.9423 24.6124 14.0156 24.5419L23.7422 15.2475C23.812 15.1807 23.9048 15.1435 24.0014 15.1435C24.098 15.1435 24.1909 15.1807 24.2606 15.2475L33.9881 24.5419C34.1314 24.6793 34.3234 24.7543 34.5219 24.7504C34.7204 24.7465 34.9092 24.6641 35.047 24.5212C35.3349 24.2231 35.311 23.7309 35.0114 23.4445Z" fill="white"/>
</svg>
