<svg width="48" height="48" viewBox="0 0 48 48" fill="none" xmlns="http://www.w3.org/2000/svg">
<path d="M12.98 16.204H14.644V27.148H12.98V16.204ZM14.148 20.86H16.708V22.252H14.148V20.86ZM3.252 17.868H11.876V19.196H3.252V17.868ZM7.572 19.884C8.26533 19.884 8.87867 20.0013 9.412 20.236C9.94533 20.46 10.3613 20.78 10.66 21.196C10.9587 21.612 11.108 22.0973 11.108 22.652C11.108 23.196 10.9587 23.676 10.66 24.092C10.3613 24.508 9.94533 24.8333 9.412 25.068C8.87867 25.3027 8.26533 25.42 7.572 25.42C6.868 25.42 6.24933 25.3027 5.716 25.068C5.18267 24.8333 4.76667 24.508 4.468 24.092C4.16933 23.676 4.02 23.196 4.02 22.652C4.02 22.0973 4.16933 21.612 4.468 21.196C4.76667 20.78 5.18267 20.46 5.716 20.236C6.24933 20.0013 6.868 19.884 7.572 19.884ZM7.572 21.164C6.996 21.164 6.52667 21.2973 6.164 21.564C5.80133 21.8307 5.62 22.1933 5.62 22.652C5.62 23.1107 5.80133 23.4733 6.164 23.74C6.52667 23.996 6.996 24.124 7.572 24.124C8.148 24.124 8.612 23.996 8.964 23.74C9.316 23.4733 9.492 23.1107 9.492 22.652C9.492 22.1933 9.316 21.8307 8.964 21.564C8.612 21.2973 8.148 21.164 7.572 21.164ZM6.724 16.204H8.404V18.54H6.724V16.204ZM5.396 29.164H15.252V30.524H5.396V29.164ZM5.396 26.3H7.076V29.756H5.396V26.3ZM18.8187 16.86H28.1628V18.204H18.8187V16.86ZM17.1547 21.996H30.4028V23.356H17.1547V21.996ZM22.9307 22.94H24.5948V26.22H22.9307V22.94ZM27.1068 16.86H28.7548V17.964C28.7548 18.5827 28.7334 19.2707 28.6908 20.028C28.6588 20.7853 28.5254 21.6547 28.2908 22.636L26.6428 22.476C26.8774 21.5053 27.0108 20.6627 27.0428 19.948C27.0854 19.2333 27.1068 18.572 27.1068 17.964V16.86ZM18.5148 25.756H28.8188V30.828H27.1388V27.1H18.5148V25.756ZM35.0095 17.26C35.7348 17.26 36.3748 17.4733 36.9295 17.9C37.4842 18.3267 37.9215 18.924 38.2415 19.692C38.5615 20.46 38.7215 21.3667 38.7215 22.412C38.7215 23.468 38.5615 24.3853 38.2415 25.164C37.9215 25.932 37.4842 26.5293 36.9295 26.956C36.3748 27.372 35.7348 27.58 35.0095 27.58C34.2948 27.58 33.6548 27.372 33.0895 26.956C32.5348 26.5293 32.0975 25.932 31.7775 25.164C31.4682 24.3853 31.3135 23.468 31.3135 22.412C31.3135 21.3667 31.4682 20.46 31.7775 19.692C32.0975 18.924 32.5348 18.3267 33.0895 17.9C33.6548 17.4733 34.2948 17.26 35.0095 17.26ZM35.0095 18.78C34.5935 18.78 34.2255 18.924 33.9055 19.212C33.5962 19.5 33.3508 19.916 33.1695 20.46C32.9988 21.004 32.9135 21.6547 32.9135 22.412C32.9135 23.18 32.9988 23.836 33.1695 24.38C33.3508 24.924 33.5962 25.3453 33.9055 25.644C34.2255 25.932 34.5935 26.076 35.0095 26.076C35.4362 26.076 35.8042 25.932 36.1135 25.644C36.4335 25.3453 36.6788 24.924 36.8495 24.38C37.0308 23.836 37.1215 23.18 37.1215 22.412C37.1215 21.6547 37.0308 21.004 36.8495 20.46C36.6788 19.916 36.4335 19.5 36.1135 19.212C35.8042 18.924 35.4362 18.78 35.0095 18.78ZM41.5375 16.188H43.2175V30.844H41.5375V16.188ZM38.1935 21.628H42.2575V22.988H38.1935V21.628Z" fill="black"/>
</svg>
