<svg width="402" height="30" viewBox="0 0 402 30" fill="none" xmlns="http://www.w3.org/2000/svg">
<path d="M0 12.728C-1.10457 12.728 -2 13.6235 -2 14.728C-2 15.8326 -1.10457 16.728 0 16.728V14.728V12.728ZM401.414 16.1422C402.195 15.3612 402.195 14.0949 401.414 13.3138L388.686 0.585892C387.905 -0.195157 386.639 -0.195157 385.858 0.585892C385.077 1.36694 385.077 2.63327 385.858 3.41432L397.172 14.728L385.858 26.0417C385.077 26.8228 385.077 28.0891 385.858 28.8702C386.639 29.6512 387.905 29.6512 388.686 28.8702L401.414 16.1422ZM0 14.728V16.728H400V14.728V12.728H0V14.728Z" fill="black"/>
</svg>
