<svg width="49" height="48" viewBox="0 0 49 48" fill="none" xmlns="http://www.w3.org/2000/svg">
<path fill-rule="evenodd" clip-rule="evenodd" d="M16.625 17.25C16.0037 17.25 15.5 17.7537 15.5 18.375V29.625C15.5 30.2463 16.0037 30.75 16.625 30.75H32.375C32.9963 30.75 33.5 30.2463 33.5 29.625V18.375C33.5 17.7537 32.9963 17.25 32.375 17.25H16.625ZM14 18.375C14 16.9253 15.1753 15.75 16.625 15.75H32.375C33.8247 15.75 35 16.9253 35 18.375V29.625C35 31.0747 33.8247 32.25 32.375 32.25H16.625C15.1753 32.25 14 31.0747 14 29.625V18.375Z" fill="white"/>
<path fill-rule="evenodd" clip-rule="evenodd" d="M17.158 19.0396C17.4123 18.7126 17.8835 18.6537 18.2105 18.908L24.5 23.7999L30.7896 18.908C31.1165 18.6537 31.5877 18.7126 31.842 19.0396C32.0964 19.3665 32.0374 19.8377 31.7105 20.092L24.9605 25.342C24.6897 25.5527 24.3104 25.5527 24.0396 25.342L17.2896 20.092C16.9626 19.8377 16.9037 19.3665 17.158 19.0396Z" fill="white"/>
</svg>
