<svg width="48" height="48" viewBox="0 0 48 48" fill="none" xmlns="http://www.w3.org/2000/svg">
<path d="M32.6672 18.389C32.6955 18.3725 32.719 18.3489 32.7353 18.3205C32.7516 18.292 32.7602 18.2599 32.7602 18.2271C32.7602 18.1943 32.7516 18.1621 32.7353 18.1337C32.719 18.1053 32.6955 18.0816 32.6672 18.0651L25.5075 13.9054C25.0494 13.6399 24.5293 13.5001 23.9998 13.5001C23.4703 13.5001 22.9501 13.6399 22.492 13.9054L15.3338 18.0651C15.3054 18.0816 15.282 18.1053 15.2656 18.1337C15.2493 18.1621 15.2407 18.1943 15.2407 18.2271C15.2407 18.2599 15.2493 18.292 15.2656 18.3205C15.282 18.3489 15.3054 18.3725 15.3338 18.389L23.9063 23.4318C23.9351 23.4488 23.9679 23.4578 24.0014 23.4578C24.0349 23.4578 24.0677 23.4488 24.0966 23.4318L32.6672 18.389ZM14.5313 19.6645C14.5027 19.648 14.4702 19.6393 14.4372 19.6394C14.4042 19.6394 14.3718 19.6482 14.3432 19.6648C14.3147 19.6814 14.291 19.7052 14.2747 19.7339C14.2583 19.7626 14.2498 19.7951 14.25 19.8281V27.9792C14.2507 28.372 14.3542 28.7578 14.5503 29.0981C14.7463 29.4385 15.0281 29.7216 15.3675 29.9193L22.9688 34.477C22.9972 34.4935 23.0296 34.5021 23.0625 34.5021C23.0954 34.5021 23.1277 34.4935 23.1562 34.477C23.1847 34.4606 23.2083 34.437 23.2248 34.4085C23.2413 34.38 23.25 34.3477 23.25 34.3148V24.8578C23.25 24.8249 23.2413 24.7926 23.2248 24.7641C23.2084 24.7357 23.1847 24.712 23.1563 24.6956L14.5313 19.6645ZM24.75 24.8906V34.3125C24.75 34.3454 24.7587 34.3777 24.7752 34.4062C24.7917 34.4346 24.8153 34.4583 24.8438 34.4747C24.8723 34.4911 24.9047 34.4998 24.9376 34.4998C24.9704 34.4998 25.0028 34.4911 25.0313 34.4747L32.632 29.917C32.9712 29.7196 33.2528 29.4368 33.4489 29.0969C33.645 28.757 33.7488 28.3716 33.75 27.9792V19.8281C33.7499 19.7952 33.7411 19.763 33.7246 19.7346C33.7081 19.7062 33.6845 19.6826 33.656 19.6662C33.6275 19.6498 33.5952 19.6412 33.5623 19.6413C33.5295 19.6413 33.4972 19.6499 33.4688 19.6664L24.8438 24.7289C24.8153 24.7453 24.7917 24.7688 24.7753 24.7972C24.7588 24.8256 24.7501 24.8578 24.75 24.8906V24.8906Z" fill="white"/>
</svg>
