<svg width="48" height="48" viewBox="0 0 48 48" fill="none" xmlns="http://www.w3.org/2000/svg">
<path d="M21.5625 23.25H15.1875C14.7399 23.25 14.3107 23.0722 13.9943 22.7557C13.6778 22.4393 13.5 22.0101 13.5 21.5625V15.1875C13.5 14.7399 13.6778 14.3107 13.9943 13.9943C14.3107 13.6778 14.7399 13.5 15.1875 13.5H21.5625C22.0101 13.5 22.4393 13.6778 22.7557 13.9943C23.0722 14.3107 23.25 14.7399 23.25 15.1875V21.5625C23.25 22.0101 23.0722 22.4393 22.7557 22.7557C22.4393 23.0722 22.0101 23.25 21.5625 23.25V23.25ZM32.8125 23.25H26.4375C25.9899 23.25 25.5607 23.0722 25.2443 22.7557C24.9278 22.4393 24.75 22.0101 24.75 21.5625V15.1875C24.75 14.7399 24.9278 14.3107 25.2443 13.9943C25.5607 13.6778 25.9899 13.5 26.4375 13.5H32.8125C33.2601 13.5 33.6893 13.6778 34.0057 13.9943C34.3222 14.3107 34.5 14.7399 34.5 15.1875V21.5625C34.5 22.0101 34.3222 22.4393 34.0057 22.7557C33.6893 23.0722 33.2601 23.25 32.8125 23.25V23.25ZM21.5625 34.5H15.1875C14.7399 34.5 14.3107 34.3222 13.9943 34.0057C13.6778 33.6893 13.5 33.2601 13.5 32.8125V26.4375C13.5 25.9899 13.6778 25.5607 13.9943 25.2443C14.3107 24.9278 14.7399 24.75 15.1875 24.75H21.5625C22.0101 24.75 22.4393 24.9278 22.7557 25.2443C23.0722 25.5607 23.25 25.9899 23.25 26.4375V32.8125C23.25 33.2601 23.0722 33.6893 22.7557 34.0057C22.4393 34.3222 22.0101 34.5 21.5625 34.5V34.5ZM32.8125 34.5H26.4375C25.9899 34.5 25.5607 34.3222 25.2443 34.0057C24.9278 33.6893 24.75 33.2601 24.75 32.8125V26.4375C24.75 25.9899 24.9278 25.5607 25.2443 25.2443C25.5607 24.9278 25.9899 24.75 26.4375 24.75H32.8125C33.2601 24.75 33.6893 24.9278 34.0057 25.2443C34.3222 25.5607 34.5 25.9899 34.5 26.4375V32.8125C34.5 33.2601 34.3222 33.6893 34.0057 34.0057C33.6893 34.3222 33.2601 34.5 32.8125 34.5V34.5Z" fill="white"/>
</svg>
