<svg width="48" height="48" viewBox="0 0 48 48" fill="none" xmlns="http://www.w3.org/2000/svg">
<path d="M0 12C0 5.37258 5.37258 0 12 0H36C42.6274 0 48 5.37258 48 12V36C48 42.6274 42.6274 48 36 48H12C5.37258 48 0 42.6274 0 36V12Z" fill="black"/>
<path d="M12 0.5H36C42.3513 0.5 47.5 5.64873 47.5 12V36C47.5 42.3513 42.3513 47.5 36 47.5H12C5.64873 47.5 0.5 42.3513 0.5 36V12C0.5 5.64873 5.64873 0.5 12 0.5Z" stroke="white" stroke-opacity="0.1"/>
<path d="M22.457 14V26.0811C22.457 27.4904 22.121 28.833 21.3828 30.041C20.6446 31.2489 19.705 32.1886 18.4971 32.9268C17.289 33.665 15.9465 34 14.5371 34C13.1277 34 11.7852 33.665 10.5771 32.9268C9.36922 32.1886 8.42962 31.2489 7.69141 30.041C6.95317 28.833 6.61819 27.4904 6.61816 26.0811V14H22.457ZM34.0674 14.0684C35.4095 14.0684 36.6174 14.2698 37.624 14.8066C38.765 15.4107 39.7048 16.2162 40.376 17.29C41.047 18.3638 41.3828 19.5045 41.3828 20.8467C41.3828 22.1889 41.0471 23.3969 40.376 24.4707C39.7048 25.6116 38.765 26.4175 37.624 27.0215C36.6845 27.4912 35.4766 27.7598 34.0674 27.7598H31.1816V33.5986H25.8789V14.0684H34.0674Z" fill="white"/>
</svg>
