<svg width="240" height="80" viewBox="0 0 240 80" fill="none" xmlns="http://www.w3.org/2000/svg">
<path opacity="0.64" d="M80.0685 29.9002C80.0685 26.9848 77.7051 24.6213 74.7896 24.6213C71.8742 24.6213 69.5107 26.9848 69.5107 29.9002V50.1368C69.5107 53.0522 71.8742 55.4156 74.7896 55.4156C77.7051 55.4156 80.0685 53.0522 80.0685 50.1368V29.9002Z" fill="black"/>
<path d="M52.6892 26.175L32.5325 46.3317C30.471 48.3933 30.471 51.7357 32.5325 53.7972C34.5941 55.8587 37.9365 55.8587 39.998 53.7972L60.1547 33.6405C62.2162 31.5789 62.2162 28.2365 60.1547 26.175C58.0932 24.1135 54.7508 24.1135 52.6892 26.175Z" fill="url(#paint0_linear_163_705)"/>
<path d="M71.0623 26.1613L50.9056 46.3181C48.844 48.3796 48.844 51.722 50.9056 53.7835C52.9671 55.845 56.3095 55.845 58.371 53.7835L78.5277 33.6268C80.5893 31.5653 80.5893 28.2229 78.5277 26.1613C76.4662 24.0998 73.1238 24.0998 71.0623 26.1613Z" fill="url(#paint1_linear_163_705)"/>
<path d="M91.2068 26.2529L71.0501 46.4096C68.9886 48.4711 68.9886 51.8135 71.0501 53.8751C73.1116 55.9366 76.454 55.9366 78.5156 53.8751L98.6723 33.7183C100.734 31.6568 100.734 28.3144 98.6723 26.2529C96.6107 24.1914 93.2684 24.1914 91.2068 26.2529Z" fill="url(#paint2_linear_163_705)"/>
<path opacity="0.64" d="M80.0685 29.9002C80.0685 26.9848 77.7051 24.6213 74.7896 24.6213C71.8742 24.6213 69.5107 26.9848 69.5107 29.9002V50.1368C69.5107 53.0522 71.8742 55.4156 74.7896 55.4156C77.7051 55.4156 80.0685 53.0522 80.0685 50.1368V29.9002Z" fill="url(#paint3_linear_163_705)"/>
<path d="M113.743 24.021H109.636V37.3317H113.743V24.021Z" fill="black"/>
<path d="M122.899 30.5799C123.157 30.8835 123.289 31.3849 123.289 32.0818V37.3316H127.246V31.4166C127.246 30.3397 127.059 29.4582 126.686 28.7745C126.312 28.0909 125.802 27.5894 125.155 27.2727C124.509 26.956 123.786 26.7976 122.989 26.7976C122.125 26.7976 121.352 26.9876 120.668 27.3677C120.346 27.5472 120.053 27.7716 119.795 28.0381V26.9876H116.028V37.3316H119.985V32.3879C119.985 31.8442 120.067 31.4061 120.233 31.0761C120.397 30.7462 120.618 30.506 120.898 30.3529C121.178 30.1998 121.481 30.1259 121.811 30.1259C122.281 30.1259 122.645 30.279 122.904 30.5826L122.899 30.5799Z" fill="black"/>
<path d="M131.77 36.8275C132.684 37.2788 133.716 37.5032 134.869 37.5032C136.099 37.5032 137.152 37.2471 138.026 36.7324C138.9 36.2178 139.515 35.4945 139.871 34.5549L136.809 33.0135C136.569 33.4965 136.284 33.8475 135.954 34.0693C135.624 34.291 135.262 34.4018 134.869 34.4018C134.502 34.4018 134.162 34.3147 133.853 34.1352C133.542 33.9584 133.301 33.705 133.13 33.3751C132.958 33.0452 132.874 32.6334 132.874 32.1398C132.874 31.6462 132.958 31.2503 133.13 30.9125C133.301 30.5773 133.542 30.3239 133.853 30.1523C134.164 29.9808 134.502 29.8963 134.869 29.8963C135.262 29.8963 135.624 30.0072 135.954 30.2289C136.284 30.4506 136.569 30.8016 136.809 31.2846L139.871 29.7643C139.515 28.8273 138.902 28.0962 138.026 27.5762C137.152 27.0563 136.099 26.7976 134.869 26.7976C133.716 26.7976 132.681 27.0246 131.77 27.4812C130.857 27.9378 130.145 28.566 129.633 29.3631C129.118 30.1629 128.862 31.0867 128.862 32.1398C128.862 33.193 129.118 34.1088 129.633 34.9244C130.147 35.7427 130.86 36.3761 131.77 36.8275Z" fill="black"/>
<path d="M148.368 36.3084V37.3325H152.153V26.9885H148.197V31.8952C148.197 32.4416 148.115 32.8824 147.948 33.2176C147.785 33.5528 147.574 33.7956 147.32 33.9408C147.067 34.086 146.787 34.1599 146.484 34.1599C146.001 34.1599 145.628 34.0015 145.362 33.6848C145.095 33.368 144.963 32.8296 144.963 32.0694V26.9885H140.988V32.7319C140.988 33.8352 141.178 34.7405 141.558 35.4506C141.938 36.1606 142.461 36.6805 143.126 37.0105C143.791 37.3404 144.544 37.504 145.38 37.504C146.154 37.504 146.879 37.314 147.558 36.9339C147.859 36.765 148.125 36.5565 148.365 36.311L148.368 36.3084Z" fill="black"/>
<path d="M163.496 27.4416C162.728 27.0114 161.883 26.795 160.957 26.795C160.03 26.795 159.32 26.9877 158.713 27.3757C158.534 27.4892 158.37 27.6211 158.22 27.7689V23.2212H154.263V37.3316H158.027V36.3999C158.214 36.6137 158.428 36.7958 158.663 36.9436C159.265 37.3184 160.028 37.5032 160.954 37.5032C161.881 37.5032 162.725 37.2841 163.493 36.846C164.261 36.4078 164.868 35.7902 165.32 34.9904C165.768 34.1907 165.995 33.2405 165.995 32.1372C165.995 31.0339 165.771 30.0837 165.32 29.284C164.868 28.4842 164.261 27.8719 163.493 27.439L163.496 27.4416ZM161.738 33.3645C161.561 33.6997 161.329 33.9584 161.044 34.1353C160.759 34.3121 160.439 34.4018 160.083 34.4018C159.703 34.4018 159.37 34.3147 159.085 34.1353C158.8 33.9584 158.571 33.6997 158.402 33.3645C158.23 33.0293 158.146 32.6202 158.146 32.1372C158.146 31.6542 158.23 31.2477 158.402 30.9099C158.573 30.5747 158.8 30.3213 159.085 30.1497C159.37 29.9781 159.703 29.8937 160.083 29.8937C160.437 29.8937 160.759 29.9781 161.044 30.1497C161.329 30.3213 161.561 30.5747 161.738 30.9099C161.915 31.2451 162.005 31.6542 162.005 32.1372C162.005 32.6202 161.915 33.0293 161.738 33.3645Z" fill="black"/>
<path d="M175.83 27.9669C174.88 27.1882 173.542 26.7976 171.818 26.7976C171.008 26.7976 170.182 26.9005 169.345 27.1011C168.508 27.3044 167.793 27.6026 167.196 27.9959L168.49 30.6195C168.843 30.3529 169.266 30.1471 169.754 30.0019C170.242 29.8567 170.733 29.7828 171.227 29.7828C171.95 29.7828 172.475 29.9253 172.805 30.2104C173.085 30.4532 173.246 30.7858 173.288 31.2081H171.38C170.327 31.2081 169.456 31.3295 168.764 31.5697C168.073 31.8099 167.563 32.1636 167.233 32.6255C166.903 33.0874 166.74 33.6496 166.74 34.3094C166.74 34.906 166.885 35.4444 167.178 35.9248C167.468 36.4078 167.901 36.7905 168.471 37.0756C169.041 37.3606 169.746 37.5032 170.583 37.5032C171.483 37.5032 172.203 37.3158 172.742 36.9436C173.096 36.6981 173.37 36.3708 173.568 35.9696V37.3342H177.258V31.6858C177.258 29.986 176.783 28.7481 175.833 27.9695L175.83 27.9669ZM172.684 34.803C172.399 34.9799 172.085 35.0696 171.741 35.0696C171.375 35.0696 171.082 34.9851 170.868 34.8136C170.651 34.642 170.546 34.4177 170.546 34.1379C170.546 33.8343 170.657 33.5994 170.878 33.4331C171.1 33.2695 171.472 33.185 171.99 33.185H173.301V33.9848C173.175 34.3517 172.969 34.6262 172.684 34.803Z" fill="black"/>
<path d="M184.73 34.4779C184.437 34.4779 184.197 34.3829 184.007 34.1928C183.817 34.0028 183.722 33.7362 183.722 33.3931V30.3683H185.966V27.4596H183.722V24.646H179.768V27.4596H178.303V30.3683H179.768V33.43C179.768 34.8131 180.151 35.8346 180.919 36.5023C181.684 37.1675 182.759 37.5 184.142 37.5C184.622 37.5 185.092 37.4525 185.548 37.3575C186.005 37.2625 186.39 37.1252 186.707 36.9484L185.739 34.1902C185.446 34.3802 185.11 34.4753 184.73 34.4753V34.4779Z" fill="black"/>
<path d="M195.652 27.4152C194.797 27.0035 193.863 26.7976 192.846 26.7976C191.743 26.7976 190.756 27.0246 189.88 27.4812C189.003 27.9378 188.317 28.5687 187.816 29.3737C187.314 30.1787 187.063 31.0999 187.063 32.1398C187.063 33.1798 187.32 34.0851 187.834 34.898C188.349 35.7083 189.067 36.3471 189.993 36.809C190.92 37.2709 192.002 37.5032 193.245 37.5032C194.259 37.5032 195.13 37.3606 195.861 37.0756C196.592 36.7905 197.202 36.3761 197.695 35.8298L195.623 33.7182C195.293 33.998 194.958 34.2065 194.615 34.3464C194.272 34.4863 193.855 34.5549 193.359 34.5549C192.862 34.5549 192.416 34.4625 192.057 34.2804C191.696 34.0956 191.421 33.837 191.231 33.5018C191.163 33.383 191.112 33.251 191.068 33.1111H198.418C198.432 32.9712 198.445 32.8129 198.455 32.636C198.468 32.4592 198.474 32.3008 198.474 32.1609C198.474 30.9943 198.218 30.0151 197.703 29.2232C197.188 28.4314 196.505 27.8296 195.65 27.4179L195.652 27.4152ZM191.838 29.8198C192.131 29.6429 192.48 29.5532 192.883 29.5532C193.264 29.5532 193.599 29.6429 193.892 29.8198C194.185 29.9966 194.412 30.2368 194.575 30.543C194.668 30.7172 194.734 30.9151 194.773 31.1316H190.988C191.025 30.9125 191.083 30.7145 191.17 30.543C191.324 30.2394 191.545 29.9992 191.836 29.8198H191.838Z" fill="black"/>
<path d="M207.245 23.2212V27.7848C207.089 27.6317 206.923 27.4944 206.741 27.3783C206.139 26.9929 205.386 26.7976 204.486 26.7976C203.586 26.7976 202.731 27.0141 201.958 27.4443C201.185 27.8745 200.572 28.4895 200.123 29.2893C199.672 30.089 199.448 31.0392 199.448 32.1425C199.448 33.2458 199.672 34.196 200.123 34.9957C200.572 35.7955 201.185 36.4131 201.958 36.8512C202.731 37.2894 203.573 37.5085 204.486 37.5085C205.4 37.5085 206.21 37.3211 206.807 36.9489C207.039 36.8037 207.247 36.6216 207.435 36.4104V37.3395H211.201V23.2212H207.245ZM207.055 33.3672C206.878 33.7024 206.645 33.9611 206.36 34.1379C206.075 34.3147 205.748 34.4045 205.381 34.4045C205.014 34.4045 204.703 34.3174 204.413 34.1379C204.12 33.9611 203.89 33.7024 203.718 33.3672C203.547 33.032 203.462 32.6229 203.462 32.1398C203.462 31.6568 203.547 31.2504 203.718 30.9125C203.89 30.5773 204.122 30.3239 204.413 30.1523C204.703 29.9808 205.028 29.8963 205.381 29.8963C205.735 29.8963 206.075 29.9808 206.36 30.1523C206.645 30.3239 206.878 30.5773 207.055 30.9125C207.231 31.2477 207.321 31.6568 207.321 32.1398C207.321 32.6229 207.231 33.032 207.055 33.3672Z" fill="black"/>
<path d="M119.019 49.3684C118.581 49.0781 118.1 48.8432 117.572 48.6637C117.047 48.4869 116.514 48.3443 115.975 48.2361C115.437 48.1279 114.946 48.0276 114.503 47.9326C114.059 47.8376 113.703 47.7135 113.439 47.5604C113.172 47.4073 113.04 47.2067 113.04 46.9507C113.04 46.7607 113.104 46.5891 113.23 46.436C113.357 46.2829 113.563 46.1615 113.848 46.0665C114.133 45.9715 114.511 45.924 114.98 45.924C115.564 45.924 116.165 46.0084 116.786 46.18C117.406 46.3516 118.039 46.5944 118.686 46.9111L119.94 43.9074C119.256 43.5274 118.486 43.2397 117.63 43.0417C116.775 42.8464 115.904 42.7461 115.015 42.7461C113.671 42.7461 112.552 42.9467 111.657 43.3452C110.763 43.7438 110.089 44.277 109.633 44.9421C109.176 45.6072 108.949 46.3463 108.949 47.1566C108.949 47.8666 109.086 48.4526 109.358 48.9145C109.63 49.3764 109.989 49.7538 110.433 50.0468C110.876 50.3397 111.364 50.572 111.897 50.7515C112.431 50.9283 112.961 51.0735 113.494 51.1896C114.028 51.3031 114.511 51.4114 114.949 51.5117C115.387 51.612 115.738 51.7439 116.004 51.9023C116.271 52.0607 116.403 52.2797 116.403 52.5595C116.403 52.7232 116.34 52.8762 116.213 53.0161C116.086 53.156 115.883 53.2642 115.603 53.3408C115.323 53.4173 114.943 53.4543 114.463 53.4543C113.716 53.4543 112.951 53.3381 112.172 53.1032C111.393 52.8683 110.691 52.5622 110.071 52.1821L108.741 55.2253C109.387 55.6424 110.224 55.9829 111.251 56.2415C112.278 56.5002 113.341 56.6322 114.445 56.6322C115.801 56.6322 116.923 56.4289 117.81 56.0225C118.697 55.616 119.367 55.0855 119.816 54.4256C120.264 53.7657 120.491 53.032 120.491 52.219C120.491 51.5354 120.354 50.96 120.082 50.4981C119.811 50.0362 119.454 49.6588 119.019 49.3658V49.3684Z" fill="black"/>
<path d="M126.264 49.1694C126.575 48.9979 126.913 48.9134 127.28 48.9134C127.673 48.9134 128.035 49.0243 128.365 49.246C128.695 49.4677 128.98 49.8187 129.22 50.3017L132.282 48.7814C131.925 47.8444 131.313 47.1133 130.437 46.5933C129.563 46.0734 128.51 45.8147 127.28 45.8147C126.126 45.8147 125.092 46.0417 124.181 46.4983C123.268 46.9549 122.555 47.5831 122.043 48.3802C121.528 49.18 121.272 50.1038 121.272 51.1569C121.272 52.21 121.528 53.1259 122.043 53.9415C122.558 54.7597 123.271 55.3932 124.181 55.8446C125.094 56.2959 126.126 56.5202 127.28 56.5202C128.51 56.5202 129.563 56.2642 130.437 55.7495C131.31 55.2348 131.925 54.5116 132.282 53.572L129.22 52.0306C128.98 52.5136 128.695 52.8646 128.365 53.0863C128.035 53.3081 127.673 53.4189 127.28 53.4189C126.913 53.4189 126.572 53.3292 126.264 53.1523C125.952 52.9755 125.712 52.7221 125.54 52.3922C125.369 52.0622 125.284 51.6505 125.284 51.1569C125.284 50.6633 125.369 50.2674 125.54 49.9296C125.712 49.5944 125.952 49.341 126.264 49.1694Z" fill="black"/>
<path d="M142 46.9813C141.05 46.2026 139.712 45.812 137.988 45.812C137.178 45.812 136.352 45.9123 135.515 46.1155C134.679 46.3188 133.963 46.617 133.367 47.0103L134.66 49.6339C135.014 49.3673 135.436 49.1615 135.924 49.0163C136.413 48.8711 136.904 48.7972 137.397 48.7972C138.12 48.7972 138.646 48.9397 138.976 49.2248C139.255 49.4676 139.416 49.8002 139.459 50.2225H137.55C136.497 50.2225 135.626 50.3439 134.935 50.5841C134.243 50.8243 133.734 51.178 133.404 51.6399C133.074 52.1018 132.91 52.664 132.91 53.3238C132.91 53.9204 133.055 54.4588 133.348 54.9392C133.639 55.4222 134.072 55.8049 134.642 56.09C135.212 56.375 135.916 56.5176 136.753 56.5176C137.653 56.5176 138.374 56.3302 138.912 55.958C139.266 55.7125 139.54 55.3852 139.738 54.984V56.3486H143.428V50.7002C143.428 49.0005 142.953 47.7626 142.003 46.9839L142 46.9813ZM138.854 53.8174C138.569 53.9943 138.255 54.084 137.912 54.084C137.545 54.084 137.252 53.9995 137.038 53.828C136.822 53.6564 136.716 53.4321 136.716 53.1523C136.716 52.8487 136.827 52.6138 137.049 52.4476C137.271 52.2839 137.64 52.1994 138.16 52.1994H139.472V52.9992C139.345 53.3661 139.139 53.6406 138.854 53.8174Z" fill="black"/>
<path d="M149.454 42.238H145.498V56.3485H149.454V42.238Z" fill="black"/>
<path d="M159.542 46.4296C158.687 46.0179 157.75 45.812 156.736 45.812C155.633 45.812 154.646 46.039 153.769 46.4956C152.896 46.9522 152.207 47.5831 151.705 48.3881C151.204 49.1931 150.953 50.1143 150.953 51.1542C150.953 52.1942 151.209 53.0995 151.724 53.9124C152.239 54.7227 152.956 55.3615 153.883 55.8234C154.809 56.2853 155.892 56.5176 157.135 56.5176C158.148 56.5176 159.019 56.375 159.75 56.09C160.479 55.8049 161.091 55.3905 161.585 54.8442L159.513 52.7326C159.183 53.0124 158.848 53.2209 158.505 53.3608C158.161 53.5007 157.744 53.5693 157.251 53.5693C156.757 53.5693 156.309 53.4769 155.947 53.2948C155.585 53.1101 155.311 52.8514 155.121 52.5162C155.052 52.3974 155.002 52.2654 154.957 52.1255H162.308C162.321 51.9857 162.334 51.8273 162.345 51.6504C162.358 51.4736 162.363 51.3152 162.363 51.1753C162.363 50.0087 162.107 49.0295 161.593 48.2377C161.078 47.4458 160.394 46.844 159.539 46.4323L159.542 46.4296ZM155.728 48.8342C156.018 48.6573 156.367 48.5676 156.773 48.5676C157.153 48.5676 157.488 48.6573 157.781 48.8342C158.072 49.011 158.301 49.2512 158.465 49.5574C158.557 49.7316 158.623 49.9295 158.663 50.146H154.878C154.915 49.9269 154.973 49.7289 155.06 49.5574C155.213 49.2538 155.435 49.0136 155.725 48.8342H155.728Z" fill="black"/>
<defs>
<linearGradient id="paint0_linear_163_705" x1="32.3129" y1="53.6353" x2="59.895" y2="25.7892" gradientUnits="userSpaceOnUse">
<stop stop-color="#8ADCFF"/>
<stop offset="1" stop-color="#53C2F2"/>
</linearGradient>
<linearGradient id="paint1_linear_163_705" x1="50.6859" y1="53.6216" x2="78.268" y2="25.7756" gradientUnits="userSpaceOnUse">
<stop stop-color="#53C2F2"/>
<stop offset="1" stop-color="#1890FF"/>
</linearGradient>
<linearGradient id="paint2_linear_163_705" x1="70.8304" y1="53.7132" x2="98.4125" y2="25.8671" gradientUnits="userSpaceOnUse">
<stop stop-color="#1890FF"/>
<stop offset="1" stop-color="#096DD9"/>
</linearGradient>
<linearGradient id="paint3_linear_163_705" x1="74.7896" y1="24.6213" x2="74.7896" y2="55.4156" gradientUnits="userSpaceOnUse">
<stop stop-color="#9E00FF"/>
<stop offset="1" stop-color="#9175FF"/>
</linearGradient>
</defs>
</svg>
