<svg width="240" height="80" viewBox="0 0 240 80" fill="none" xmlns="http://www.w3.org/2000/svg">
<path d="M27.2158 41.3857C28.197 42.1909 29.1615 42.9373 30.1008 43.6585C30.5537 44.0108 30.9982 44.3546 31.4343 44.6901C29.3041 46.4765 27.2996 48.4558 25.5384 51.1227H38.0095C38.5546 51.8692 39.0662 52.6743 39.5526 53.5549C40.0223 54.402 40.4165 55.2658 40.7268 56.0541H22.9385C22.3934 57.3709 21.9992 58.5869 21.9992 59.1992H16.7407C16.7407 55.92 19.6593 50.695 19.9948 50.1079C22.1502 46.3171 24.641 43.6418 27.2158 41.3857Z" fill="#003764"/>
<path d="M43.9233 20.5696H49.1818C49.1818 23.2114 47.6219 27.237 46.171 29.8621C44.1498 33.5271 41.7763 36.1521 39.3022 38.3662C38.2287 37.4772 37.1636 36.6553 36.1321 35.8586C35.7798 35.5818 35.436 35.3218 35.0921 35.0535C37.172 33.2755 39.1177 31.2878 40.8035 28.6208H28.3492C27.7285 27.7989 27.1247 26.9016 26.5628 25.9119C26.1518 25.1991 25.7744 24.4275 25.439 23.6978H43.1853C43.655 22.3727 43.9233 21.207 43.9233 20.5696Z" fill="#003764"/>
<path d="M27.1406 38.3159C27.3922 38.5424 27.6438 38.752 27.9038 38.9701C28.0212 39.0707 28.1386 39.1714 28.2644 39.272C28.3567 39.3475 28.449 39.4314 28.5496 39.5068C28.3902 39.381 28.2393 39.2468 28.0799 39.121C28.0212 39.0707 27.9625 39.012 27.8954 38.9617C27.6438 38.752 27.3922 38.534 27.149 38.3243L27.1406 38.3159Z" fill="#00366E"/>
<path d="M26.0337 37.3096C26.4027 37.6534 26.7717 37.9889 27.1407 38.316C26.7717 37.9889 26.3943 37.6534 26.0337 37.3096Z" fill="#00366E"/>
<path d="M28.264 39.272C28.3562 39.3475 28.4485 39.4313 28.5491 39.5068C28.3982 39.3894 28.2472 39.2552 28.0879 39.1294C28.1466 39.1797 28.2053 39.23 28.264 39.2804V39.272ZM27.6098 38.7268C27.7021 38.8107 27.7943 38.8862 27.895 38.9617C27.8782 38.9449 27.8614 38.9281 27.8447 38.9197C27.6098 38.7268 27.3834 38.5256 27.1486 38.3243C27.2995 38.4585 27.4589 38.5927 27.6098 38.7268ZM27.1486 38.3243C26.7795 37.9972 26.4105 37.6617 26.0415 37.3179C26.4021 37.6701 26.7795 37.9972 27.1486 38.3243Z" fill="#00366E"/>
<path d="M16.7407 20.5696H21.9992C21.9992 20.5696 21.9992 20.6451 21.9992 20.687C21.9992 20.7457 22.016 20.8128 22.0244 20.8883C22.0244 20.9134 22.0328 20.9386 22.0411 20.9638C22.0495 21.0141 22.0579 21.0728 22.0747 21.1231C22.0998 21.2321 22.125 21.3495 22.1586 21.4753C22.1753 21.5341 22.1921 21.5928 22.2089 21.6599C22.2844 21.9366 22.385 22.2385 22.494 22.5572C22.536 22.6914 22.5947 22.834 22.645 22.9682C22.7372 23.203 22.8295 23.4462 22.9301 23.6978C22.9888 23.8404 23.0475 23.983 23.1146 24.1256C23.165 24.2514 23.2237 24.3855 23.2824 24.5113C23.6095 25.241 23.9701 25.979 24.3307 26.6416C24.4062 26.7842 24.4817 26.9183 24.5572 27.0525C24.8675 27.5977 25.1946 28.126 25.5216 28.6208C25.6139 28.7634 25.7145 28.906 25.8068 29.0486C25.9158 29.2079 26.0332 29.3673 26.1423 29.5182C26.7377 30.3401 27.3499 31.0865 27.9873 31.791C28.046 31.8581 28.1131 31.9252 28.1718 31.9923C28.3396 32.1768 28.5241 32.3697 28.7002 32.5542C28.7841 32.6465 28.8763 32.7303 28.9602 32.8142C29.2621 33.1161 29.564 33.4097 29.8744 33.6948C30.1343 33.938 30.4027 34.1813 30.6795 34.4161C30.8724 34.5838 31.0653 34.7516 31.2582 34.9193C31.4846 35.1122 31.7027 35.2967 31.9291 35.4812C32.1555 35.6741 32.382 35.8586 32.6084 36.0347C32.8181 36.2025 33.0362 36.3786 33.2458 36.5463C33.2626 36.5631 33.2794 36.5715 33.2961 36.5882C33.7574 36.9489 34.2271 37.3179 34.6967 37.6785C35.6193 38.3914 36.5586 39.121 37.4895 39.8758C38.194 40.4545 38.8985 41.0584 39.603 41.6874C39.7288 41.8048 39.8546 41.9138 39.972 42.0312C40.2907 42.3332 40.6094 42.6351 40.9281 42.9622C41.0958 43.1299 41.2635 43.306 41.4313 43.4821C41.4564 43.5073 41.4816 43.5325 41.5068 43.5576C41.6409 43.7002 41.7751 43.8428 41.9093 43.9937C41.9932 44.0776 42.0687 44.1699 42.1525 44.2621C42.27 44.3963 42.3958 44.5305 42.5048 44.6647C42.6222 44.7989 42.7396 44.933 42.857 45.0756C44.0228 46.4762 45.1298 48.0529 46.1446 49.898C47.5955 52.523 49.1555 56.5487 49.1555 59.1905H43.897C43.897 59.1402 43.897 59.0899 43.897 59.0395C43.897 59.006 43.897 58.9641 43.897 58.9305C43.897 58.8466 43.8802 58.7628 43.8634 58.6621C43.855 58.595 43.8383 58.5279 43.8299 58.4525C43.8215 58.3938 43.8131 58.3351 43.7963 58.268C43.7628 58.1254 43.7376 57.966 43.6957 57.7983C43.6789 57.7396 43.6622 57.6725 43.6454 57.6054C43.528 57.1357 43.3602 56.6074 43.1673 56.0539C43.1338 55.97 43.1086 55.8861 43.0751 55.7939C43.0331 55.6597 42.9744 55.5255 42.9241 55.3913C42.8906 55.3074 42.8654 55.2236 42.8319 55.1481C42.7732 55.0055 42.7144 54.8629 42.6557 54.7204C42.5803 54.5442 42.5048 54.3681 42.4293 54.192C42.3706 54.0578 42.3119 53.932 42.2448 53.7978C42.1777 53.6469 42.1022 53.4959 42.0267 53.3449C41.8758 53.043 41.7248 52.7411 41.5571 52.4392C41.3055 51.9863 41.0455 51.5418 40.7855 51.1225C40.6429 50.896 40.5004 50.6696 40.3494 50.4515C40.2236 50.2586 40.0894 50.0741 39.9552 49.8896C39.9552 49.8896 39.9552 49.8728 39.9384 49.8728C39.8043 49.6799 39.6617 49.4954 39.5191 49.3109C39.3765 49.1264 39.234 48.9335 39.083 48.7574C38.9656 48.6064 38.8398 48.4555 38.7056 48.3045C38.6301 48.2206 38.563 48.1368 38.4875 48.0445C38.2275 47.7426 37.9592 47.4491 37.6824 47.1639C37.5398 47.0046 37.3889 46.8536 37.2379 46.7026C37.1289 46.5936 37.0199 46.4846 36.9108 46.3756C36.8941 46.3588 36.8689 46.342 36.8521 46.3169C36.7431 46.2078 36.6341 46.1072 36.525 46.0065C36.2818 45.7717 36.0386 45.5453 35.787 45.3272C35.6277 45.1763 35.4599 45.0337 35.3006 44.8995C35.3006 44.8995 35.2922 44.8827 35.2838 44.8827C35.1161 44.7402 34.9567 44.5976 34.789 44.4634C34.4535 44.1782 34.1097 43.9015 33.7658 43.6247C33.5981 43.4821 33.4219 43.348 33.2458 43.2138C32.9607 42.9873 32.6671 42.7525 32.3736 42.5261C32.0801 42.2996 31.7865 42.0732 31.493 41.8467C30.8724 41.3603 30.235 40.8739 29.606 40.3707C29.4047 40.2113 29.195 40.0436 28.9937 39.8842C28.8428 39.7584 28.6834 39.6326 28.5241 39.5068C28.4318 39.4313 28.3396 39.3559 28.2389 39.272C28.1802 39.2217 28.1215 39.1714 28.0628 39.121C28.0209 39.0875 27.9873 39.0539 27.9454 39.0204C27.9202 38.9952 27.8951 38.9785 27.8699 38.9533C27.8532 38.9365 27.8364 38.9198 27.8196 38.9114C27.5848 38.7185 27.3583 38.5172 27.1235 38.3159C26.7545 37.9888 26.3855 37.6534 26.0165 37.3095C25.8403 37.1418 25.6642 36.974 25.4797 36.7979L25.4294 36.7476C25.2449 36.5631 25.0688 36.387 24.8842 36.1941C24.8423 36.1521 24.792 36.1018 24.7501 36.0599C24.5991 35.9005 24.4397 35.7328 24.2888 35.5651C23.8443 35.0786 23.3998 34.5754 22.9721 34.0471C22.863 33.9129 22.754 33.7787 22.645 33.6445C22.0411 32.8729 21.4541 32.051 20.8838 31.1704C20.7915 31.0278 20.6993 30.8853 20.607 30.7427C20.498 30.5666 20.3973 30.3904 20.2883 30.2143C20.1793 30.0382 20.0786 29.8537 19.9696 29.6692C19.6593 29.0737 16.7407 23.8488 16.7407 20.5696Z" fill="#E4032E"/>
<g clip-path="url(#clip0_163_728)">
<path d="M79.7745 50.5871L73.3817 42.138L71.734 44.102V50.5871H67.2393V29.4841H71.734V38.9152L79.2011 29.4841H84.7372L76.354 39.3831L85.304 50.5805H79.7679L79.7745 50.5871Z" fill="black"/>
<path d="M108.187 39.7061C110.177 39.2909 111.825 37.518 111.825 34.862C111.825 32.0479 109.768 29.4841 105.748 29.4841H94.6429V37.9332H86.2202V41.7887H94.6429V50.5871H106.097C110.111 50.5871 112.233 48.0563 112.233 44.8928C112.233 42.2369 110.427 40.0488 108.187 39.7061ZM99.1377 33.3462H104.766C106.288 33.3462 107.237 34.3282 107.237 35.6529C107.237 36.9776 106.288 37.9332 104.766 37.9332H99.1377V33.3462ZM104.924 46.6987H99.1377V41.7887H104.924C106.697 41.7887 107.646 42.9289 107.646 44.2602C107.646 45.776 106.631 46.6987 104.924 46.6987Z" fill="black"/>
<path d="M114.791 31.2569C114.791 29.9256 115.898 28.8843 117.197 28.8843C118.495 28.8843 119.602 29.9256 119.602 31.2569C119.602 32.5882 118.528 33.6624 117.197 33.6624C115.865 33.6624 114.791 32.5882 114.791 31.2569Z" fill="black"/>
<path d="M119.219 35.3032H115.199V50.5867H119.219V35.3032Z" fill="black"/>
<path d="M121.908 42.9289C121.908 38.5923 124.946 34.9214 129.975 34.9214C135.004 34.9214 138.075 38.5923 138.075 42.9289C138.075 47.2655 135.037 50.9628 129.975 50.9628C124.914 50.9628 121.908 47.2919 121.908 42.9289ZM133.896 42.9289C133.896 40.5563 132.473 38.5001 129.975 38.5001C127.477 38.5001 126.087 40.5563 126.087 42.9289C126.087 45.3015 127.477 47.3907 129.975 47.3907C132.473 47.3907 133.896 45.3345 133.896 42.9289Z" fill="black"/>
<path d="M141.521 50.5871V29.4841H149.463C152.851 29.4841 155.223 31.3822 155.223 34.862C155.223 37.518 153.358 39.3238 151.493 39.6995C153.74 40.0488 155.638 42.4543 155.638 44.8863C155.638 48.4913 153.299 50.5805 149.595 50.5805H141.528L141.521 50.5871ZM154.116 34.862C154.116 32.4565 152.567 30.4332 149.463 30.4332H142.536V39.2579H149.463C152.561 39.2579 154.116 37.2939 154.116 34.862ZM154.525 44.9258C154.525 42.5203 152.877 40.2136 149.588 40.2136H142.536V49.6446H149.588C152.686 49.6446 154.525 47.8125 154.525 44.9324V44.9258Z" fill="black"/>
<path d="M160.12 50.5869V35.3034H161.069V38.0846C162.427 36.2788 164.107 35.0134 166.322 35.0134V36.1536C166.038 36.1206 165.847 36.1206 165.564 36.1206C163.949 36.1206 161.768 37.7024 161.069 39.1259V50.5803H160.12V50.5869Z" fill="black"/>
<path d="M168.978 31.7579C168.978 31.2504 169.42 30.8418 169.894 30.8418C170.402 30.8418 170.81 31.2504 170.81 31.7579C170.81 32.2654 170.402 32.674 169.894 32.674C169.42 32.674 168.978 32.2654 168.978 31.7579ZM169.42 50.5805V35.3036H170.369V50.5871H169.42V50.5805Z" fill="black"/>
<path d="M187.009 50.5871V48.0234C185.968 49.6051 183.912 50.9628 181.506 50.9628C177.394 50.9628 174.672 47.7993 174.672 42.9552C174.672 38.1112 177.394 34.9213 181.506 34.9213C183.787 34.9213 185.777 36.1208 187.009 37.9266V29.4841H187.958V50.5871H187.009ZM187.009 47.0743V38.8823C186.06 37.2676 183.879 35.7847 181.506 35.7847C177.776 35.7847 175.72 38.9482 175.72 42.9684C175.72 46.9886 177.776 50.1192 181.506 50.1192C183.879 50.1192 186.06 48.6956 187.009 47.0809V47.0743Z" fill="black"/>
<path d="M193.244 54.4758L193.943 53.6849C195.274 55.3326 196.698 55.9323 199.097 55.9323C202.135 55.9323 204.6 54.3835 204.6 50.6797V48.0237C203.558 49.6054 201.502 51.029 199.097 51.029C194.984 51.029 192.262 47.8325 192.262 42.9951C192.262 38.1576 194.984 34.9282 199.097 34.9282C201.377 34.9282 203.367 36.1277 204.6 37.9335V35.3105H205.549V50.6862C205.549 55.0492 202.794 56.7891 199.097 56.7891C196.533 56.7891 195.017 56.3475 193.244 54.4824V54.4758ZM204.6 47.0746V38.8826C203.651 37.2679 201.469 35.785 199.097 35.785C195.366 35.785 193.31 38.9814 193.31 42.9951C193.31 47.0087 195.366 50.1788 199.097 50.1788C201.469 50.1788 203.651 48.6893 204.6 47.0812V47.0746Z" fill="black"/>
<path d="M209.852 42.9289C209.852 38.5001 212.923 34.9214 217.036 34.9214C221.715 34.9214 224.121 38.6846 224.121 42.9289V43.2453H210.927C211.019 46.9755 213.457 50.1126 217.352 50.1126C219.501 50.1126 221.241 49.3218 222.664 47.8059L223.231 48.4057C221.682 50.0204 219.909 50.9694 217.346 50.9694C212.917 50.9694 209.846 47.5818 209.846 42.9355L209.852 42.9289ZM217.003 35.7782C213.082 35.7782 211.025 39.3832 210.927 42.3885H223.106C223.106 39.4491 221.175 35.7782 216.996 35.7782H217.003Z" fill="black"/>
</g>
<defs>
<clipPath id="clip0_163_728">
<rect width="157" height="38" fill="white" transform="translate(67.0601 20.8843)"/>
</clipPath>
</defs>
</svg>
