<svg width="240" height="80" viewBox="0 0 240 80" fill="none" xmlns="http://www.w3.org/2000/svg">
<path d="M158.769 49.5686C159.047 49.5701 159.294 49.7499 159.381 50.0149C160.034 52.0173 161.038 55.0933 161.451 56.3596C161.566 56.7125 161.474 57.1004 161.211 57.3625C161.029 57.5445 160.802 57.7698 160.562 58.01C160.08 58.4912 159.426 58.7612 158.745 58.76C158.064 58.7588 157.411 58.4869 156.931 58.0042C156.702 57.7743 156.486 57.5563 156.306 57.3752C156.008 57.0765 155.906 56.6347 156.041 56.2356C156.483 54.9316 157.49 51.9589 158.151 50.0081C158.241 49.7441 158.49 49.5672 158.769 49.5686ZM158.78 35.2756C159.683 35.2744 160.499 35.8107 160.857 36.6389C162.918 41.4059 165.935 48.3823 167.141 51.1702C167.457 51.9019 167.285 52.7532 166.711 53.3059C166.226 53.7725 165.651 54.3258 165.227 54.7336C165.09 54.8649 164.897 54.9198 164.711 54.8811C164.525 54.8422 164.371 54.7145 164.298 54.5393C163.344 52.2424 160.529 45.4621 159.301 42.5042C159.203 42.2695 158.974 42.1168 158.72 42.1174C158.466 42.1181 158.237 42.2719 158.141 42.5071C156.958 45.4016 154.285 51.9447 153.301 54.3538C153.218 54.5573 153.039 54.7062 152.823 54.7502C152.608 54.7942 152.384 54.7273 152.228 54.5725C151.775 54.1244 151.187 53.5418 150.725 53.0842C150.272 52.6358 150.14 51.9561 150.391 51.3704C151.503 48.7762 154.604 41.5462 156.706 36.6448C157.062 35.8154 157.878 35.277 158.78 35.2756ZM158.728 26.4602C162.199 26.4656 165.344 28.5076 166.762 31.676C168.862 36.3697 170.89 40.8991 172.148 43.7112C172.925 45.4457 172.546 47.4794 171.198 48.8186C171.037 48.9789 170.806 49.0495 170.583 49.0071C170.36 48.9646 170.171 48.8148 170.08 48.6067C169.067 46.2976 166.32 40.0367 163.807 34.3088C162.948 32.351 161.018 31.0813 158.88 31.0667C156.742 31.0521 154.795 32.2956 153.909 34.2415C151.215 40.1588 148.253 46.6658 147.277 48.8098C147.201 48.977 147.049 49.0967 146.868 49.1311C146.688 49.1655 146.501 49.1102 146.369 48.9827C146.341 48.9557 146.312 48.9279 146.283 48.8997C144.866 47.5321 144.461 45.4213 145.271 43.6262C146.549 40.7967 148.577 36.3022 150.677 31.6506C152.105 28.4866 155.256 26.4548 158.728 26.4602Z" fill="#F42828"/>
<path d="M105.109 31.2466C111.176 31.2466 116.637 34.8402 116.637 43.5669C116.637 43.5669 116.637 43.6993 116.637 43.8882C116.637 44.6127 116.05 45.2004 115.325 45.2007H98.7627C98.9494 49.8209 101.283 52.4341 105.483 52.4341C108.501 52.434 110.238 51.3723 110.875 49.4712C111.033 49.0109 111.465 48.7012 111.952 48.7007C112.996 48.7007 114.734 48.7006 115.745 48.7104C115.944 48.7104 116.133 48.801 116.258 48.9565C116.382 49.112 116.429 49.3158 116.386 49.5103C115.296 54.1278 111.259 56.6343 105.343 56.6343C98.1561 56.6342 92.9758 51.9212 92.9756 44.2212V43.8472C92.9757 36.2871 98.156 31.2467 105.109 31.2466ZM82.9971 26.8354C83.2071 26.7362 83.4531 26.7512 83.6494 26.8755C83.8457 26.9998 83.9648 27.2163 83.9648 27.4487V31.7446H88.6377C88.8217 31.7446 88.9988 31.8177 89.1289 31.9478C89.2589 32.0779 89.332 32.255 89.332 32.439V35.2983C89.3319 35.4821 89.2588 35.6586 89.1289 35.7886C88.9988 35.9187 88.8217 35.9917 88.6377 35.9917H83.9648V48.8257C83.9649 50.9722 84.9914 51.9526 86.7646 51.9526C87.5772 51.9526 88.2425 51.8782 88.8486 51.7104C89.0066 51.6644 89.177 51.6958 89.3086 51.7944C89.4403 51.8931 89.5183 52.0479 89.5186 52.2124C89.5186 52.9078 89.5183 53.969 89.5088 54.7856C89.5087 55.5136 89.0096 56.1467 88.3018 56.3169C87.5918 56.47 86.7354 56.5728 85.6914 56.5728C80.8379 56.5727 78.3174 53.9586 78.3174 49.3384V35.9917H75.7451C75.5612 35.9917 75.384 35.9187 75.2539 35.7886C75.1239 35.6586 75.0509 35.4821 75.0508 35.2983V32.439C75.0508 32.255 75.1238 32.0779 75.2539 31.9478C75.384 31.8177 75.5612 31.7446 75.7451 31.7446H78.3174V30.7866C78.3174 29.7234 78.9312 28.7554 79.8926 28.3013C80.8889 27.8308 82.1453 27.2377 82.9971 26.8354ZM139.152 20.8022C139.37 20.7238 139.613 20.7569 139.803 20.8901C139.992 21.0233 140.105 21.2405 140.105 21.4722V55.314C140.105 55.5384 140.016 55.7539 139.857 55.9126C139.699 56.0712 139.483 56.1606 139.259 56.1606H135.305C134.837 56.1606 134.458 55.7813 134.458 55.314V23.7622C134.458 23.0021 134.935 22.3237 135.65 22.0659C136.693 21.6899 138.187 21.1502 139.152 20.8022ZM55.2939 31.7466C55.9187 31.7466 56.5012 32.0634 56.8398 32.5884C58.1475 34.6159 61.3635 39.6033 61.3828 39.6333C61.3828 39.6333 64.5786 34.633 65.8809 32.5952C66.2188 32.0664 66.8031 31.7466 67.4307 31.7466H71.0195C71.2795 31.7466 71.5186 31.8905 71.6396 32.1206C71.7606 32.3506 71.7438 32.629 71.5967 32.8433C69.6246 35.7139 64.4629 43.2271 64.4629 43.2271C64.4714 43.2397 70.3501 51.9468 72.4531 55.062C72.598 55.2766 72.6128 55.554 72.4912 55.7827C72.3697 56.0112 72.1318 56.1537 71.873 56.1538H67.6123C66.9877 56.1538 66.4052 55.8368 66.0664 55.312C64.6432 53.1071 60.916 47.3335 60.916 47.3335C60.8968 47.3625 57.074 53.1433 55.6279 55.3296C55.2874 55.8443 54.711 56.1538 54.0938 56.1538H50.5244C50.2653 56.1537 50.0276 56.0107 49.9062 55.7817C49.7848 55.5526 49.7997 55.2746 49.9453 55.0601C52.0103 52.0193 57.6704 43.6851 57.6963 43.647C57.6963 43.647 52.4475 35.7743 50.4883 32.8354C50.345 32.6206 50.3323 32.3434 50.4541 32.1157C50.5761 31.8884 50.8133 31.7466 51.0713 31.7466H55.2939ZM126.497 20.8257C126.716 20.7414 126.963 20.7701 127.156 20.9028C127.349 21.0356 127.465 21.2552 127.465 21.4897V55.3081C127.465 55.5324 127.375 55.7472 127.217 55.9058C127.058 56.0643 126.843 56.1538 126.619 56.1538H122.664C122.44 56.1538 122.224 56.0644 122.065 55.9058C121.907 55.7472 121.818 55.5322 121.818 55.3081V23.8667C121.818 23.1211 122.277 22.4523 122.973 22.1841C124.011 21.7836 125.52 21.2023 126.497 20.8257ZM190.234 30.353C190.397 30.3427 190.558 30.3994 190.677 30.5112C190.796 30.623 190.863 30.7796 190.863 30.9429C190.863 31.8926 190.863 33.7324 190.861 34.7964C190.861 35.2429 190.51 35.611 190.064 35.6323C185.597 35.8425 182.93 37.5292 182.93 42.4243V54.0474C182.93 54.6383 182.45 55.1174 181.859 55.1177H178.353C178.069 55.1177 177.796 55.0048 177.596 54.8042C177.395 54.6035 177.282 54.3312 177.282 54.0474V33.7056C177.282 33.2671 177.549 32.8731 177.956 32.7095C179.05 32.2699 181.199 31.406 182.278 30.9722C182.424 30.9136 182.59 30.9309 182.721 31.019C182.851 31.1073 182.93 31.2551 182.93 31.4126V35.2837C184.389 32.3645 186.52 30.5774 190.234 30.353ZM105.109 35.354C101.703 35.3541 99.4165 37.6405 98.8564 41.4204H111.036C110.756 37.2204 108.609 35.354 105.109 35.354Z" fill="black"/>
</svg>
